<svg width="136" height="37" viewBox="0 0 136 37" fill="none" xmlns="http://www.w3.org/2000/svg">
<path d="M57.6221 6.48062H61.1097C63.3583 6.48062 65.0284 6.76049 66.1239 7.31665C67.2158 7.87295 68.1175 8.77723 68.8251 10.0331C69.5327 11.2856 69.8847 12.7496 69.8847 14.4254C69.8847 15.617 69.6871 16.7113 69.2921 17.709C68.897 18.7065 68.3473 19.5356 67.6504 20.1959C66.9537 20.8526 66.1994 21.3083 65.3876 21.563C64.5759 21.8143 63.1679 21.9398 61.1638 21.9398H57.6221V6.48062V6.48062ZM60.5531 9.32266V19.0761H61.9179C63.2649 19.0761 64.2382 18.9217 64.8453 18.6133C65.4522 18.3046 65.9479 17.7842 66.3323 17.0558C66.7167 16.3274 66.9106 15.4303 66.9106 14.3609C66.9106 12.721 66.4508 11.447 65.535 10.5427C64.7088 9.72801 63.3797 9.32266 61.5515 9.32266H60.5531ZM72.4743 6.48062H75.4052V21.9398H72.4743V6.48062ZM93.0269 9.00674L90.9542 11.0559C89.6431 9.67077 88.1131 8.97812 86.3675 8.97812C84.8481 8.97812 83.5731 9.48049 82.5458 10.4891C81.5185 11.4974 81.0048 12.721 81.0048 14.1636C81.0048 15.6527 81.5364 16.916 82.6032 17.9529C83.67 18.9901 84.9846 19.5069 86.547 19.5069C87.5636 19.5069 88.4221 19.2915 89.1189 18.8645C89.8157 18.4374 90.3797 17.7699 90.8069 16.8585H86.3281V14.1026H94.1079L94.1293 14.7522C94.1293 16.1049 93.7774 17.386 93.077 18.5989C92.3729 19.8083 91.4642 20.734 90.3507 21.3729C89.2337 22.0079 87.9228 22.3275 86.4213 22.3275C84.8158 22.3275 83.3828 21.9793 82.1219 21.2832C80.8612 20.5833 79.8662 19.5929 79.13 18.3046C78.3971 17.0129 78.0308 15.6241 78.0308 14.1312C78.0308 12.0857 78.7096 10.3058 80.0637 8.79512C81.6693 6.99385 83.7633 6.09302 86.3387 6.09302C87.6856 6.09302 88.9464 6.34055 90.121 6.83947C91.1088 7.25914 92.0785 7.98413 93.0269 9.00674V9.00674ZM96.6042 6.48062H99.5351V21.9398H96.6042V6.48062ZM101.342 6.48062H109.897V9.3872H107.074V21.9398H104.079V9.3872H101.342V6.48062ZM116.632 6.48062H119.599L125.554 21.9398H122.491L121.284 18.7533H114.94L113.705 21.9398H110.641L116.632 6.48062V6.48062ZM118.119 10.5894L116.022 15.9112H120.206L118.119 10.5894ZM127.821 6.48062H130.752V19.1408H135.083V21.9398H127.821V6.48062Z" fill="#F65C2C"/>
<path d="M98.634 25.4065H99.6392L101.656 30.6435H100.619L100.21 29.5639H98.0609L97.6424 30.6435H96.6045L98.634 25.4065V25.4065ZM99.1378 26.7983L98.4273 28.6013H99.8447L99.1378 26.7983ZM102.439 25.4065H103.447V27.2178L104.865 25.4065H106.069L104.237 27.7442L106.246 30.6435H105.062L103.447 28.3107V30.6435H102.439V25.4065V25.4065ZM108.562 25.4065H109.567L111.584 30.6435H110.547L110.138 29.5639H107.989L107.57 30.6435H106.532L108.562 25.4065V25.4065ZM109.066 26.7983L108.355 28.6013H109.773L109.066 26.7983ZM112.367 25.4065H113.548C114.31 25.4065 114.876 25.5013 115.247 25.6897C115.617 25.878 115.922 26.1845 116.162 26.61C116.402 27.0343 116.521 27.5303 116.521 28.0979C116.521 28.5016 116.454 28.8724 116.32 29.2102C116.186 29.5483 116 29.8291 115.764 30.0527C115.528 30.2752 115.273 30.4296 114.998 30.5158C114.722 30.601 114.246 30.6435 113.567 30.6435H112.367V25.4065V25.4065ZM113.36 26.3692V29.6733H113.822C114.278 29.6733 114.608 29.6212 114.814 29.5166C115.019 29.4122 115.187 29.2358 115.318 28.9889C115.448 28.7422 115.513 28.4384 115.513 28.076C115.513 27.5204 115.358 27.0889 115.047 26.7827C114.768 26.5066 114.317 26.3692 113.698 26.3692H113.36ZM117.478 25.4065H120.34V26.384H118.471V27.3247H120.34V28.2876H118.471V29.6662H120.34V30.6435H117.478V25.4065V25.4065ZM121.77 25.4065H122.737L123.958 29.0595L125.184 25.4065H126.149L127.028 30.6435H126.065L125.505 27.3359L124.396 30.6435H123.515L122.41 27.3359L121.839 30.6435H120.866L121.77 25.4065Z" fill="#F65C2C"/>
<path d="M132.061 25.4065H133.066L135.083 30.6435H134.045L133.636 29.5639H131.488L131.069 30.6435H130.031L132.061 25.4065V25.4065ZM132.565 26.7983L131.854 28.6013H133.271L132.565 26.7983Z" fill="#F65C2C"/>
<path d="M127.853 25.4065H129.349V30.6435H128.356V26.3401H127.275L127.853 25.4065Z" fill="#F65C2C"/>
<path fill-rule="evenodd" clip-rule="evenodd" d="M10.3364 8.69356C15.1186 9.54335 22.1155 11.9324 21.2648 16.7103C20.4143 21.488 12.0382 26.8449 7.25592 25.9951C2.47387 25.1452 -0.713192 20.5832 0.13739 15.8055C0.987971 11.0279 5.55434 7.8435 10.3364 8.69356ZM12.8932 7.62526C15.0405 3.11667 19.6414 0 24.9717 0C32.3551 0 38.3408 5.98003 38.3408 13.3567C38.3408 17.3368 36.5981 20.9104 33.8337 23.3574C31.4746 25.4454 28.3713 26.7133 24.9717 26.7133C22.1197 26.7133 19.4768 25.8206 17.3064 24.3003C20.2854 22.1402 22.642 19.354 23.1123 16.713C23.9753 11.8656 18.2117 9.03562 12.8932 7.62526ZM11.2042 7.16185C9.62931 6.86216 8.2478 6.73338 6.65847 7.05783C6.11501 6.08902 6.01048 4.63752 6.5005 3.52341C7.17934 1.97945 9.35579 1.04092 10.9472 1.60616C12.0859 2.01124 12.9248 2.88662 13.2626 3.93551C12.4535 4.91065 11.7548 6.00563 11.2042 7.16185ZM50.7066 18.004C49.0498 18.2983 46.6258 19.126 46.9205 20.7815C47.2151 22.4367 50.1171 24.2926 51.7739 23.9982C53.4307 23.7037 54.535 22.1232 54.2402 20.4679C53.9455 18.8126 52.3635 17.7095 50.7066 18.004ZM49.4305 13.2493C49.0118 15.3735 47.5262 17.0207 45.619 17.5989C45.2219 17.7191 44.8064 17.7837 44.3793 17.8058C43.0982 16.9055 41.6329 16.2496 40.051 15.9052C40.1621 15.1695 40.2201 14.4163 40.2201 13.6496C40.2201 12.0179 39.9583 10.4476 39.4758 8.977C39.6129 8.77969 39.7619 8.59367 39.9244 8.42126C41.2912 6.97155 43.4286 6.37507 45.519 6.94527C48.0155 7.62623 49.9302 10.7118 49.4305 13.2493ZM28.2099 27.7123C28.6148 32.5309 32.6571 36.3159 37.5852 36.3159C42.7816 36.3159 46.9944 32.1071 46.9944 26.9153C46.9944 22.4105 43.8225 18.6463 39.5883 17.7289C38.0491 22.9026 33.6432 26.8432 28.2099 27.7123Z" fill="#F65C2C"/>
</svg>
