<svg width="68" height="23" viewBox="0 0 68 23" fill="none" xmlns="http://www.w3.org/2000/svg">
<path d="M28.7012 5.63477H31.5234V20H30.0977V7.04102H27.8418L28.7012 5.63477ZM45.9277 5.63477V7.00195H40.8105L40.0977 10.918C40.7227 10.7357 41.2858 10.6445 41.7871 10.6445C43.0957 10.6445 44.1732 11.084 45.0195 11.9629C45.8724 12.8353 46.2988 13.9551 46.2988 15.3223C46.2988 16.2663 46.0807 17.1322 45.6445 17.9199C45.2083 18.7077 44.6159 19.3132 43.8672 19.7363C43.125 20.153 42.2656 20.3613 41.2891 20.3613C40.1237 20.3613 39.1406 20.0065 38.3398 19.2969C37.5391 18.5807 37.0605 17.6562 36.9043 16.5234H38.3789C38.4896 17.0768 38.6751 17.526 38.9355 17.8711C39.2025 18.2161 39.554 18.4961 39.9902 18.7109C40.4329 18.9193 40.8952 19.0234 41.377 19.0234C42.321 19.0234 43.1315 18.6654 43.8086 17.9492C44.4857 17.2331 44.8242 16.3379 44.8242 15.2637C44.8242 14.2936 44.5182 13.5059 43.9062 12.9004C43.2943 12.2949 42.4772 11.9922 41.4551 11.9922C40.6087 11.9922 39.5833 12.2493 38.3789 12.7637L39.707 5.63477H45.9277ZM47.8223 12.8223C47.8223 10.9277 48.0241 9.46289 48.4277 8.42773C48.8379 7.39258 49.4141 6.60807 50.1562 6.07422C50.8984 5.54036 51.7285 5.27344 52.6465 5.27344C53.5775 5.27344 54.4206 5.54362 55.1758 6.08398C55.931 6.61784 56.5267 7.42188 56.9629 8.49609C57.4056 9.57031 57.627 11.0124 57.627 12.8223C57.627 14.6257 57.4089 16.0612 56.9727 17.1289C56.543 18.1966 55.9473 19.0039 55.1855 19.5508C54.4238 20.0911 53.5775 20.3613 52.6465 20.3613C51.7285 20.3613 50.9017 20.0977 50.166 19.5703C49.4303 19.043 48.8542 18.2585 48.4375 17.2168C48.0273 16.1686 47.8223 14.7038 47.8223 12.8223ZM49.1797 12.8516C49.1797 14.4727 49.3229 15.6999 49.6094 16.5332C49.9023 17.36 50.332 17.9883 50.8984 18.418C51.4648 18.8477 52.0638 19.0625 52.6953 19.0625C53.3333 19.0625 53.929 18.8542 54.4824 18.4375C55.0358 18.0143 55.4557 17.3828 55.7422 16.543C56.1003 15.5208 56.2793 14.2904 56.2793 12.8516C56.2793 11.4062 56.1198 10.2246 55.8008 9.30664C55.4818 8.38216 55.0391 7.70833 54.4727 7.28516C53.9128 6.85547 53.3203 6.64062 52.6953 6.64062C52.0573 6.64062 51.4583 6.85547 50.8984 7.28516C50.3385 7.70833 49.9121 8.33659 49.6191 9.16992C49.3262 9.99674 49.1797 11.224 49.1797 12.8516Z" fill="#868686"/>
<g clip-path="url(#clip0_22_1493)">
<path d="M21.914 12.3387C22.0287 12.1276 22.0287 11.8722 21.914 11.661C19.8124 7.7915 15.713 5.16455 11 5.16455C6.28702 5.16455 2.18765 7.79154 0.0860049 11.661C-0.0286683 11.8722 -0.0286683 12.1276 0.0860049 12.3387C2.18769 16.2083 6.28695 18.8352 11 18.8352C15.713 18.8352 19.8123 16.2083 21.914 12.3387ZM11 17.243C8.10425 17.243 5.75683 14.8956 5.75683 11.9999C5.75683 9.1042 8.10425 6.75671 11 6.75671C13.8957 6.75671 16.2432 9.10417 16.2432 11.9999C16.2432 14.8956 13.8957 17.243 11 17.243Z" fill="#868686"/>
<path d="M11.0002 9.32812C10.7796 9.32812 10.5654 9.35505 10.3604 9.40541C10.5703 9.64842 10.6977 9.96487 10.6977 10.3112C10.6977 11.0769 10.0769 11.6977 9.31122 11.6977C8.96487 11.6977 8.64842 11.5704 8.40541 11.3604C8.35505 11.5654 8.32812 11.7796 8.32812 12.0002C8.32812 13.4759 9.52443 14.6722 11.0001 14.6722C12.4758 14.6722 13.6721 13.4758 13.6721 12.0002C13.6721 10.5245 12.4759 9.32812 11.0002 9.32812Z" fill="#868686"/>
</g>
<defs>
<clipPath id="clip0_22_1493">
<rect width="22" height="22" fill="white" transform="translate(0 1)"/>
</clipPath>
</defs>
</svg>
