<svg width="25" height="36" viewBox="0 0 25 36" fill="none" xmlns="http://www.w3.org/2000/svg">
<path d="M0.678785 16.5953L19.6158 0.575117C20.0538 0.204291 20.6384 0 21.2619 0C21.8853 0 22.47 0.204291 22.908 0.575117L24.3025 1.75462C25.21 2.5232 25.21 3.77236 24.3025 4.53977L8.40068 17.9925L24.3202 31.4602C24.7582 31.8311 25 32.3254 25 32.8525C25 33.3802 24.7582 33.8746 24.3202 34.2457L22.9256 35.4249C22.4873 35.7957 21.9029 36 21.2795 36C20.6561 36 20.0714 35.7957 19.6334 35.4249L0.678785 19.3901C0.239758 19.0181 -0.00137711 18.5214 5.72205e-06 17.9934C-0.00137711 17.4634 0.239758 16.967 0.678785 16.5953Z" fill="#444444"/>
</svg>
