<svg width="163" height="31" viewBox="0 0 163 31" fill="none" xmlns="http://www.w3.org/2000/svg">
<path d="M14.5489 2.92705C14.8483 2.00574 16.1517 2.00574 16.4511 2.92705L18.7555 10.0193C18.8893 10.4313 19.2733 10.7102 19.7065 10.7102H27.1637C28.1324 10.7102 28.5352 11.9499 27.7515 12.5193L21.7185 16.9025C21.368 17.1571 21.2213 17.6085 21.3552 18.0205L23.6596 25.1127C23.959 26.034 22.9045 26.8001 22.1208 26.2307L16.0878 21.8475C15.7373 21.5929 15.2627 21.5929 14.9122 21.8475L8.87923 26.2307C8.09551 26.8001 7.04103 26.034 7.34039 25.1127L9.64478 18.0205C9.77866 17.6085 9.632 17.1571 9.28151 16.9025L3.24852 12.5193C2.46481 11.9499 2.86758 10.7102 3.83631 10.7102H11.2935C11.7267 10.7102 12.1107 10.4313 12.2445 10.0193L14.5489 2.92705Z" fill="#F65C2C"/>
<path d="M47.5489 2.92705C47.8483 2.00574 49.1517 2.00574 49.4511 2.92705L51.7555 10.0193C51.8893 10.4313 52.2733 10.7102 52.7065 10.7102H60.1637C61.1324 10.7102 61.5352 11.9499 60.7515 12.5193L54.7185 16.9025C54.368 17.1571 54.2213 17.6085 54.3552 18.0205L56.6596 25.1127C56.959 26.034 55.9045 26.8001 55.1208 26.2307L49.0878 21.8475C48.7373 21.5929 48.2627 21.5929 47.9122 21.8475L41.8792 26.2307C41.0955 26.8001 40.041 26.034 40.3404 25.1127L42.6448 18.0205C42.7787 17.6085 42.632 17.1571 42.2815 16.9025L36.2485 12.5193C35.4648 11.9499 35.8676 10.7102 36.8363 10.7102H44.2935C44.7267 10.7102 45.1107 10.4313 45.2445 10.0193L47.5489 2.92705Z" fill="#F65C2C"/>
<path d="M80.5489 2.92705C80.8483 2.00574 82.1517 2.00574 82.4511 2.92705L84.7555 10.0193C84.8893 10.4313 85.2733 10.7102 85.7065 10.7102H93.1637C94.1324 10.7102 94.5352 11.9499 93.7515 12.5193L87.7185 16.9025C87.368 17.1571 87.2213 17.6085 87.3552 18.0205L89.6596 25.1127C89.959 26.034 88.9045 26.8001 88.1208 26.2307L82.0878 21.8475C81.7373 21.5929 81.2627 21.5929 80.9122 21.8475L74.8792 26.2307C74.0955 26.8001 73.041 26.034 73.3404 25.1127L75.6448 18.0205C75.7787 17.6085 75.632 17.1571 75.2815 16.9025L69.2485 12.5193C68.4648 11.9499 68.8676 10.7102 69.8363 10.7102H77.2935C77.7267 10.7102 78.1107 10.4313 78.2445 10.0193L80.5489 2.92705Z" fill="#F65C2C"/>
<path d="M113.549 2.92705C113.848 2.00574 115.152 2.00574 115.451 2.92705L117.755 10.0193C117.889 10.4313 118.273 10.7102 118.707 10.7102H126.164C127.132 10.7102 127.535 11.9499 126.751 12.5193L120.718 16.9025C120.368 17.1571 120.221 17.6085 120.355 18.0205L122.66 25.1127C122.959 26.034 121.904 26.8001 121.121 26.2307L115.088 21.8475C114.737 21.5929 114.263 21.5929 113.912 21.8475L107.879 26.2307C107.096 26.8001 106.041 26.034 106.34 25.1127L108.645 18.0205C108.779 17.6085 108.632 17.1571 108.282 16.9025L102.249 12.5193C101.465 11.9499 101.868 10.7102 102.836 10.7102H110.293C110.727 10.7102 111.111 10.4313 111.245 10.0193L113.549 2.92705Z" fill="#F65C2C"/>
<path d="M146.549 2.92705C146.848 2.00574 148.152 2.00574 148.451 2.92705L150.755 10.0193C150.889 10.4313 151.273 10.7102 151.707 10.7102H159.164C160.132 10.7102 160.535 11.9499 159.751 12.5193L153.718 16.9025C153.368 17.1571 153.221 17.6085 153.355 18.0205L155.66 25.1127C155.959 26.034 154.904 26.8001 154.121 26.2307L148.088 21.8475C147.737 21.5929 147.263 21.5929 146.912 21.8475L140.879 26.2307C140.096 26.8001 139.041 26.034 139.34 25.1127L141.645 18.0205C141.779 17.6085 141.632 17.1571 141.282 16.9025L135.249 12.5193C134.465 11.9499 134.868 10.7102 135.836 10.7102H143.293C143.727 10.7102 144.111 10.4313 144.245 10.0193L146.549 2.92705Z" fill="#C4C4C4"/>
</svg>
