<svg width="12" height="8" viewBox="0 0 12 8" fill="none" xmlns="http://www.w3.org/2000/svg">
<path d="M11.9531 4.18468C12.0156 4.0695 12.0156 3.93019 11.9531 3.81501C10.8067 1.70437 8.57074 0.271484 6.00001 0.271484C3.42929 0.271484 1.19326 1.70439 0.0469118 3.81501C-0.0156373 3.93019 -0.0156373 4.0695 0.0469118 4.18468C1.19328 6.29532 3.42925 7.72823 5.99999 7.72823C8.57074 7.72823 10.8067 6.29532 11.9531 4.18468ZM5.99999 6.85976C4.4205 6.85976 3.14009 5.57932 3.14009 3.99986C3.14009 2.42039 4.4205 1.13993 5.99999 1.13993C7.57948 1.13993 8.85991 2.42037 8.85991 3.99986C8.85991 5.57934 7.57948 6.85976 5.99999 6.85976Z" fill="#868686"/>
<path d="M5.99995 2.54248C5.87964 2.54248 5.76279 2.55717 5.65097 2.58464C5.7655 2.71719 5.83495 2.88979 5.83495 3.07872C5.83495 3.49636 5.49638 3.83495 5.07872 3.83495C4.88979 3.83495 4.71719 3.76552 4.58464 3.65097C4.55717 3.7628 4.54248 3.87964 4.54248 3.99995C4.54248 4.80489 5.19501 5.4574 5.99993 5.4574C6.80485 5.4574 7.45738 4.80487 7.45738 3.99995C7.45738 3.19503 6.80489 2.54248 5.99995 2.54248Z" fill="#868686"/>
</svg>
