<svg width="54" height="16" viewBox="0 0 54 16" fill="none" xmlns="http://www.w3.org/2000/svg">
<path d="M48.449 -0.00012207H38.0527C38.6583 3.50956 41.9892 6.81279 45.6228 6.81279H53.8995C54.0004 6.50311 54.0004 5.98697 54.0004 5.6773C54.0004 2.58052 51.477 -0.00012207 48.449 -0.00012207Z" fill="#9C9C9C"/>
<path d="M38.9629 7.43225V16H44.0096V11.4581H48.4507C50.8732 11.4581 52.9928 9.70322 53.6994 7.43225H38.9629Z" fill="#B8B8B8"/>
<path d="M21.1973 -0.00012207V15.8967H25.6384C25.6384 15.8967 26.7487 15.8967 27.3543 14.7612C30.3823 8.67085 31.2907 6.81279 31.2907 6.81279H31.8963V15.8967H36.9431V-0.00012207H32.502C32.502 -0.00012207 31.3917 0.10311 30.7861 1.13537C28.2627 6.39988 26.8496 9.08375 26.8496 9.08375H26.244V-0.00012207H21.1973Z" fill="#B8B8B8"/>
<path d="M0.00195312 15.9998V0.103027H5.04868C5.04868 0.103027 6.46178 0.103024 7.26926 2.37399C9.28795 8.36109 9.48983 9.1869 9.48983 9.1869C9.48983 9.1869 9.89355 7.74173 11.7104 2.37399C12.5179 0.103024 13.9309 0.103027 13.9309 0.103027H18.9777V15.9998H13.9309V7.43207H13.3253L10.4992 15.9998H8.2786L5.45245 7.43207H4.84683V15.9998H0.00195312Z" fill="#B8B8B8"/>
</svg>
