<svg width="78" height="19" viewBox="0 0 78 19" fill="none" xmlns="http://www.w3.org/2000/svg">
<path d="M29.3278 8.14287C29.1283 9.6508 27.9314 9.6508 26.8342 9.6508H26.2358L26.7345 6.73546C26.7345 6.5344 26.934 6.43387 27.1334 6.43387H27.4327C28.2306 6.43387 28.9288 6.43387 29.3278 6.83599C29.3278 7.23811 29.3278 7.64022 29.3278 8.14287ZM28.8291 4.1217H24.5402C24.2409 4.1217 24.0415 4.32276 23.9417 4.62435L22.2461 15.6825C22.2461 15.8836 22.3458 16.0847 22.6451 16.0847H24.6399C24.9391 16.0847 25.1386 15.8836 25.2384 15.582L25.7371 12.5661C25.7371 12.2646 26.0363 12.0635 26.3355 12.0635H27.7319C30.5247 12.0635 32.1205 10.6561 32.6193 7.94181C32.8187 6.73546 32.6193 5.8307 32.1205 5.12699C31.3226 4.52382 30.2255 4.1217 28.8291 4.1217Z" fill="#B8B8B8"/>
<path d="M38.7025 12.164C38.503 13.3703 37.6053 14.1746 36.4084 14.1746C35.81 14.1746 35.3113 13.9735 35.0121 13.5714C34.7128 13.1693 34.6131 12.6666 34.7128 12.164C34.9123 10.9576 35.81 10.1534 37.0069 10.1534C37.6053 10.1534 38.104 10.3545 38.4033 10.7566C38.6028 11.0582 38.8022 11.5608 38.7025 12.164ZM41.4953 8.14283H39.5004C39.301 8.14283 39.2012 8.24336 39.1014 8.44442L39.0017 9.04759L38.902 8.84654C38.503 8.24336 37.5056 7.94177 36.5082 7.94177C34.2141 7.94177 32.319 9.65077 31.92 12.0635C31.7206 13.2698 32.0198 14.3756 32.718 15.1799C33.3164 15.8836 34.2141 16.1852 35.3113 16.1852C37.1066 16.1852 38.104 14.9788 38.104 14.9788L38.0043 15.582C38.0043 15.783 38.104 15.9841 38.4033 15.9841H40.1986C40.4978 15.9841 40.6973 15.783 40.7971 15.4815L41.8942 8.44442C41.8942 8.34389 41.7945 8.14283 41.4953 8.14283Z" fill="#B8B8B8"/>
<path d="M52.3653 8.14282H50.2707C50.0712 8.14282 49.8717 8.24335 49.772 8.44441L46.9792 12.6666L45.7823 8.64547C45.6826 8.34388 45.4831 8.24335 45.1839 8.24335H43.189C42.9895 8.24335 42.7901 8.44441 42.8898 8.746L45.1839 15.3809L43.0893 18.3968C42.8898 18.5978 43.0893 19 43.3885 19H45.4831C45.6826 19 45.8821 18.8994 45.9818 18.6984L52.7643 8.746C52.864 8.44441 52.6645 8.14282 52.3653 8.14282Z" fill="#B8B8B8"/>
<path d="M59.6461 8.14287C59.4467 9.6508 58.2498 9.6508 57.1526 9.6508H56.5541L57.0528 6.73546C57.0528 6.5344 57.2524 6.43387 57.4518 6.43387H57.751C58.549 6.43387 59.2472 6.43387 59.6461 6.83599C59.7459 7.23811 59.7459 7.64022 59.6461 8.14287ZM59.1474 4.1217H54.8585C54.5593 4.1217 54.3598 4.32276 54.2601 4.62435L52.5645 15.6825C52.5645 15.8836 52.6642 16.0847 52.9634 16.0847H55.1578C55.3572 16.0847 55.5567 15.9841 55.5567 15.6825L56.0554 12.5661C56.0554 12.2646 56.3547 12.0635 56.6539 12.0635H58.0503C60.843 12.0635 62.4389 10.6561 62.9376 7.94181C63.1371 6.73546 62.9376 5.8307 62.4389 5.12699C61.7407 4.52382 60.6436 4.1217 59.1474 4.1217Z" fill="#9C9C9C"/>
<path d="M69.1244 12.164C68.9249 13.3703 68.0272 14.1746 66.8303 14.1746C66.2319 14.1746 65.7332 13.9735 65.4339 13.5714C65.1347 13.1693 65.0349 12.6666 65.1347 12.164C65.3342 10.9576 66.2319 10.1534 67.4288 10.1534C68.0272 10.1534 68.5259 10.3545 68.8251 10.7566C69.0246 11.0582 69.2241 11.5608 69.1244 12.164ZM71.9172 8.14283H69.9223C69.7228 8.14283 69.6231 8.24336 69.5233 8.44442L69.4236 9.04759L69.3239 8.84654C68.9249 8.24336 67.9275 7.94177 66.9301 7.94177C64.636 7.94177 62.7409 9.65077 62.3419 12.0635C62.1424 13.2698 62.4416 14.3756 63.1398 15.1799C63.7383 15.8836 64.636 16.1852 65.7331 16.1852C67.5285 16.1852 68.5259 14.9788 68.5259 14.9788L68.4262 15.582C68.4262 15.783 68.5259 15.9841 68.8251 15.9841H70.6205C70.9197 15.9841 71.1192 15.783 71.2189 15.4815L72.3161 8.44442C72.3161 8.34389 72.1166 8.14283 71.9172 8.14283Z" fill="#9C9C9C"/>
<path d="M74.309 4.42329L72.5137 15.6825C72.5137 15.8836 72.6134 16.0847 72.9127 16.0847H74.708C75.0072 16.0847 75.2067 15.8836 75.3065 15.582L77.0021 4.52382C77.0021 4.32276 76.9023 4.1217 76.6031 4.1217H74.6083C74.5085 4.1217 74.4088 4.32276 74.309 4.42329Z" fill="#9C9C9C"/>
<path d="M4.48956 18.1955L4.78877 16.0844H4.09058H0.599609L2.99343 0.703433C2.99343 0.703433 2.99342 0.602905 3.09316 0.602905H3.19291H9.07768C10.9728 0.602905 12.3692 1.00502 13.0674 1.80926C13.3666 2.21137 13.5661 2.61349 13.6658 3.01561C13.7656 3.51825 13.7656 4.02089 13.6658 4.7246V5.12671L13.965 5.32777C14.2643 5.4283 14.4637 5.62936 14.6632 5.83042C14.9625 6.13201 15.1619 6.53412 15.1619 7.03677C15.2617 7.53941 15.2617 8.14259 15.0622 8.84629C14.8627 9.65053 14.6632 10.2537 14.364 10.8569C14.0648 11.3595 13.6658 11.7616 13.2668 12.1638C12.8679 12.4653 12.2694 12.6664 11.7707 12.8675C11.1723 12.968 10.5738 13.0685 9.87562 13.0685H9.37691C9.07768 13.0685 8.77846 13.169 8.47923 13.3701C8.27975 13.5712 8.08027 13.8727 7.98052 14.1743V14.3754L7.38207 18.095V18.1955V18.296C7.38207 18.296 7.38206 18.296 7.28232 18.296H4.48956V18.1955Z" fill="#B8B8B8"/>
<path d="M14.3655 4.72473C14.3655 4.82526 14.3655 4.92579 14.2657 5.02632C13.4678 9.04749 10.8745 10.3544 7.48329 10.3544H5.78767C5.3887 10.3544 4.98975 10.656 4.98975 11.0581L4.09206 16.6877L3.89258 18.2962C3.89258 18.5977 4.09206 18.7988 4.29154 18.7988H7.38355C7.78251 18.7988 8.08174 18.4972 8.08174 18.1956V17.9946L8.6802 14.3755V14.1745C8.77994 13.7724 9.07916 13.5713 9.37839 13.5713H9.8771C12.8694 13.5713 15.1634 12.3649 15.7619 8.84643C16.0611 7.33849 15.8616 6.13214 15.1634 5.32791C14.9639 5.12685 14.6647 4.92579 14.3655 4.72473Z" fill="#9C9C9C"/>
<path d="M13.5661 4.42329C13.4663 4.42329 13.3666 4.32276 13.1671 4.32276C13.0674 4.32276 12.8679 4.22223 12.7681 4.22223C12.2694 4.1217 11.7707 4.1217 11.272 4.1217H6.68389C6.58415 4.1217 6.4844 4.1217 6.38466 4.22223C6.18518 4.32276 5.9857 4.52382 5.9857 4.72488L4.98828 10.9577V11.1587C5.08802 10.7566 5.38724 10.455 5.7862 10.455H7.48183C10.8731 10.455 13.4663 9.04763 14.2643 5.12699C14.2643 5.02647 14.2643 4.92594 14.364 4.82541C14.1645 4.72488 13.965 4.62435 13.7656 4.52382C13.6658 4.42329 13.5661 4.42329 13.5661 4.42329Z" fill="#585858"/>
<path d="M5.98647 4.72474C5.98647 4.52368 6.18595 4.32263 6.38543 4.2221C6.48517 4.2221 6.58492 4.12157 6.68466 4.12157H11.2728C11.7715 4.12157 12.3699 4.12157 12.7689 4.2221C12.8687 4.2221 13.0681 4.2221 13.1679 4.32263C13.2676 4.32263 13.3674 4.42316 13.5669 4.42316C13.6666 4.42316 13.6666 4.42316 13.7663 4.52369C13.9658 4.62422 14.1653 4.72474 14.3648 4.82527C14.5643 3.31734 14.3648 2.31204 13.5669 1.40728C12.6692 0.401992 11.0733 -0.00012207 9.07846 -0.00012207H3.19369C2.79473 -0.00012207 2.39575 0.301462 2.39575 0.703578L0.00195312 16.1851C0.00195312 16.4866 0.201437 16.7882 0.500663 16.7882H4.09136L4.98905 10.9576L5.98647 4.72474Z" fill="#B8B8B8"/>
</svg>
