<svg width="101" height="152" viewBox="0 0 101 152" fill="none" xmlns="http://www.w3.org/2000/svg">
<path d="M32.9893 39.7974H6.71973C8.08691 29.1854 11.8955 20.6567 18.1455 14.2114C26.8695 5.22705 37.8395 0.734863 51.0557 0.734863C62.8395 0.734863 72.7028 4.47835 80.6455 11.9653C88.6533 19.4523 92.6572 28.339 92.6572 38.6255C92.6572 45.0057 90.8994 50.8325 87.3838 56.106C83.9333 61.3794 78.8877 65.6437 72.2471 68.8989C80.971 71.5031 87.7744 76.0604 92.6572 82.5708C97.6051 89.0161 100.079 96.6333 100.079 105.422C100.079 118.313 95.3265 129.25 85.8213 138.235C76.3161 147.154 64.2067 151.614 49.4932 151.614C35.5609 151.614 24.2002 147.415 15.4111 139.016C6.62207 130.553 1.80436 119.062 0.958008 104.543H28.0088C29.1807 111.965 31.7523 117.499 35.7236 121.145C39.7601 124.726 44.8382 126.516 50.958 126.516C57.3382 126.516 62.6117 124.465 66.7783 120.364C71.0101 116.262 73.126 111.249 73.126 105.325C73.126 98.8143 70.2939 93.313 64.6299 88.8208C58.9658 84.3286 50.7952 82.0174 40.1182 81.8872V58.4497C46.6937 57.9289 51.5765 56.9198 54.7666 55.4224C58.0218 53.8599 60.5283 51.744 62.2861 49.0747C64.109 46.4054 65.0205 43.5734 65.0205 40.5786C65.0205 36.6724 63.6533 33.4497 60.9189 30.9106C58.1846 28.3065 54.6038 27.0044 50.1768 27.0044C46.2705 27.0044 42.7223 28.2088 39.5322 30.6177C36.3421 32.9614 34.1611 36.0213 32.9893 39.7974Z" fill="#F65C2C"/>
</svg>
